<svg width="1024" height="768" xmlns="http://www.w3.org/2000/svg">
 <!-- Created with Method Draw - http://github.com/duopixel/Method-Draw/ -->

 <g>
  <title>background</title>
  <rect fill="#00000000" id="canvas_background" height="770" width="1026" y="-1" x="-1"/>
  <g display="none" id="canvasGrid">
   <rect fill="url(#gridpattern)" stroke-width="0" y="0" x="0" height="100%" width="100%" id="svg_1"/>
  </g>
 </g>
 <g>
  <title>Layer 1</title>
  <path stroke="#000" fill="#7AD6CA" stroke-width="0" stroke-opacity="null" d="m564.004479,326.645945l0,-112.312226l208.562471,112.312226l-208.562471,0z" id="svg_5" transform="rotate(114 668.2857055664064,270.4898376464843) "/>
  <path stroke="#000" fill="#666666" stroke-width="0" stroke-opacity="null" d="m307.782644,252.644893c4.241376,1.810815 10.029549,6.038703 14.511852,4.491847c2.940099,-1.00122 4.660506,-6.670354 6.487184,-9.654496c13.750244,-22.432151 28.694239,-47.94621 39.571595,-69.774093c0,-0.973837 0.624655,-1.726733 -0.303482,-3.050657c6.084617,-8.201595 10.214959,-17.212747 16.862762,-26.339287c2.105389,-2.900116 4.247308,-6.924647 7.20042,-8.08433l5.454051,-1.8851c6.93353,-1.476456 11.997921,-1.425631 16.83208,2.42488c2.451248,1.963365 3.578958,5.201781 5.950003,7.151464c1.60342,1.331714 7.712787,4.607254 9.984642,4.100788c1.76525,-0.395019 3.220022,-1.867552 4.457469,-3.73319l4.308715,-6.592146c1.20787,-1.875322 1.895123,-3.680338 1.331895,-5.121565c-0.724973,-1.855803 -7.379962,-4.306133 -9.60808,-4.689422c-3.269543,-0.580789 -7.14486,0.414594 -10.474641,-0.211182c-6.543913,-1.245698 -9.367237,-4.726565 -11.657888,-10.354652c-16.144891,-7.859371 -37.8807,-12.969225 -63.188472,-6.37706c-6.865043,1.789325 -13.445613,3.146489 -17.958556,6.781876c-0.904472,2.111954 0.884443,2.532442 2.760663,2.506973c-1.467679,1.106887 -3.83866,1.748297 -2.470151,4.347217c15.445795,-5.874479 45.440056,-7.904322 47.476894,4.120363c0.445177,2.677147 -2.44538,6.363359 -4.222494,9.408142c-5.602805,9.605661 -12.448967,17.398535 -17.414146,26.098788c-1.845581,0.086053 -2.265944,0.92106 -3.250704,1.470562c-16.120077,19.479259 -33.745617,43.784818 -48.905662,65.58727c-2.019148,2.900059 -6.797789,7.186655 -6.203859,9.769884c0.891502,3.95218 8.227684,5.792386 12.467891,7.607124l0.000021,0z" id="svg_6"/>
  <path stroke="#000" fill="#8CD79F" stroke-width="0" stroke-opacity="null" d="m310.064567,569.370658c-9.404092,-1.723925 -12.646893,-13.767057 -7.040212,-20.982195c7.440755,-11.158704 23.357279,-18.681082 35.828073,-11.640211c0.248497,-39.423567 0.105114,-78.849315 0.143101,-118.273852c31.094452,-6.235514 62.259208,-12.122955 93.364534,-18.30687c-0.067385,44.04022 -0.134746,88.08044 -0.202107,132.120659c-4.873238,13.320418 -20.619783,22.557313 -34.331015,18.426847c-8.162994,-2.476932 -10.119952,-13.157693 -5.574482,-19.701927c6.224629,-9.761975 17.81017,-16.464423 29.457377,-14.635894c3.323789,-0.340847 8.218304,5.11397 6.813439,-1.056803c-0.115376,-34.833901 0.28698,-69.677088 -0.296865,-104.503666c-5.074616,-1.909758 -14.099325,2.484182 -20.596764,2.839674c-21.727783,4.286548 -43.502003,8.345945 -65.179889,12.883066c0.654077,38.597163 0.349092,77.217991 0.251698,115.823326c1.150907,8.812539 -3.640707,17.11382 -10.926428,21.707608c-6.287024,4.63576 -14.054606,6.306899 -21.71046,5.300263l0,-0.000024z" id="svg_9" transform="rotate(-41 366.3140258789063,484.9100646972655) "/>
  <path stroke="#000" fill="#84D3DB" stroke-width="0" stroke-opacity="null" d="m674.840058,614.44349c-24.751388,-10.237744 -42.492346,-42.767981 -38.460528,-70.522166c2.542322,-17.501118 56.179243,-123.745135 60.863447,-120.558413c1.52887,1.040098 15.133815,25.810041 30.233223,55.044308c24.187682,46.830248 27.453473,55.562626 27.453473,73.40777c0,36.17135 -26.298469,65.799789 -57.875242,65.203539c-9.214544,-0.174001 -19.211013,-1.332773 -22.214372,-2.575016l0,-0.000022zm24.798084,-18.192857c0.819281,-4.682886 -1.094512,-6.966724 -5.838041,-6.966724c-10.810932,0 -25.80746,-15.072139 -29.15792,-29.304895c-3.574027,-15.182481 -13.050366,-16.988139 -14.450058,-2.75335c-2.696737,27.425348 44.902837,64.992973 49.446019,39.024969l0,0z" id="svg_10"/>
  <path stroke="#000" fill="#DDDDDD" stroke-width="0" stroke-opacity="null" d="m185.466219,248.054044c0.146429,-1.199344 0.231202,-2.410985 0.231202,-3.634944c0,-21.231424 -21.563062,-38.440441 -48.166225,-38.440441c-20.645967,0 -38.209293,10.388138 -45.060468,24.964764c-4.539178,-3.9732 -11.012722,-6.513354 -18.280026,-6.513354c-13.702328,0 -24.807535,8.862835 -24.807535,19.798378c0,1.291602 0.177257,2.55243 0.477807,3.77023c-18.280047,2.404827 -32.267501,14.982545 -32.267501,30.248021c0,16.987611 17.255064,30.752357 38.532959,30.752357l122.342205,0c21.285607,0 38.532959,-13.764746 38.532959,-30.752357c0.007712,-15.074803 -13.602131,-27.560264 -31.535376,-30.192675l0,0.00002z" id="svg_11"/>
  <path stroke="#000" fill="#C48157" stroke-width="0" stroke-opacity="null" d="m870.576673,372.327609l-3.692415,-12.631935c1.082093,-0.927798 2.097744,-1.920533 3.056433,-2.982865l12.913911,3.609128c1.36211,-1.939086 2.534374,-3.998791 3.583234,-6.13737l-9.610671,-9.092383c0.460358,-1.336038 0.859037,-2.695244 1.143795,-4.096218l12.951862,-3.173058c0.094935,-1.169036 0.185105,-2.342687 0.185105,-3.539553s-0.094935,-2.365879 -0.185105,-3.534892l-12.951862,-3.173058c-0.289522,-1.400974 -0.688178,-2.760203 -1.143795,-4.096218l9.615412,-9.092405c-1.053601,-2.133918 -2.225865,-4.198261 -3.587975,-6.13737l-12.913911,3.604489c-0.953949,-1.057671 -1.97434,-2.050428 -3.056433,-2.982865l3.692415,-12.627297c-1.983845,-1.326739 -4.095812,-2.477199 -6.283726,-3.502424l-9.302185,9.398579c-1.36211,-0.449984 -2.75743,-0.835032 -4.190723,-1.117992l-3.241539,-12.664426c-1.200733,-0.088128 -2.396724,-0.180917 -3.621208,-0.180917s-2.420452,0.092789 -3.616467,0.180917l-3.246256,12.664426c-1.433294,0.28296 -2.823895,0.668008 -4.190746,1.117992l-9.302185,-9.398579c-2.18315,1.03914 -4.290399,2.184962 -6.274221,3.516339l3.692391,12.627297c-1.082093,0.927798 -2.102485,1.925194 -3.051669,2.978227l-12.918652,-3.609128c-1.36211,1.939109 -2.534374,4.003452 -3.583257,6.142008l9.615435,9.092405c-0.455617,1.336015 -0.854273,2.695244 -1.143795,4.096218l-12.956603,3.173058c-0.090194,1.169013 -0.185105,2.342687 -0.185105,3.534892s0.094912,2.365879 0.185105,3.539553l12.956603,3.173058c0.289522,1.400974 0.688178,2.760181 1.143795,4.096218l-9.615435,9.092383c1.048883,2.13394 2.221147,4.198284 3.583257,6.13737l12.918652,-3.609128c0.949185,1.062332 1.969576,2.050428 3.051669,2.982865l-3.692391,12.631935c1.983822,1.326761 4.095812,2.472583 6.278985,3.502424l9.302185,-9.398557c1.366851,0.449984 2.75743,0.839648 4.190723,1.117992l3.246279,12.659765c1.195992,0.092789 2.396724,0.180917 3.621208,0.180917s2.420452,-0.092766 3.621208,-0.180917l3.241515,-12.659765c1.433294,-0.282982 2.828613,-0.672646 4.190723,-1.117992l9.302185,9.398557c2.178432,-1.039118 4.290399,-2.18494 6.274244,-3.511701zm-26.63464,-22.271729c-8.90827,0 -16.131699,-7.06053 -16.131699,-15.767887s7.223429,-15.763249 16.131699,-15.763249s16.126958,7.055892 16.126958,15.763249s-7.218688,15.767887 -16.126958,15.767887zm73.525235,32.95994c0.090194,-2.537519 -0.284758,-5.121421 -1.091575,-7.672878l5.904033,-8.224905c-0.892247,-1.623636 -1.898392,-3.163782 -3.042187,-4.564756l-10.071029,2.064343c-2.031301,-1.688572 -4.342619,-3.006057 -6.815291,-3.94777l-2.899797,-9.644432c-1.831973,-0.315451 -3.687674,-0.487091 -5.567079,-0.491729l-4.622612,8.981063c-1.324159,0.250514 -2.648295,0.593794 -3.948703,1.080885c-1.219719,0.454622 -2.35875,1.020565 -3.450349,1.637551l-9.5205,-3.799321c-1.409566,1.215419 -2.695728,2.528242 -3.85851,3.952408l4.304645,9.129512c-1.229225,2.296304 -2.074016,4.768864 -2.46319,7.352789l-8.974713,4.917313c0.090171,1.799914 0.360705,3.599851 0.778349,5.404404l9.985622,2.407624c1.096316,2.430838 2.567583,4.606501 4.347336,6.462097l-1.670596,9.918138c1.518723,1.06697 3.132381,1.985469 4.807717,2.783372l8.139403,-6.123433c2.543879,0.654093 5.206374,0.904584 7.887879,0.695837l6.891215,7.454832c0.949208,-0.264407 1.893651,-0.547389 2.828613,-0.895308c0.830568,-0.306174 1.613658,-0.66803 2.396747,-1.034502l0.1756,-10.043395c2.159445,-1.572614 4.000877,-3.465317 5.467403,-5.594597l10.256134,-0.621624c0.721388,-1.665381 1.324136,-3.39572 1.746543,-5.172465l-7.921112,-6.411053zm-19.757647,9.310428c-5.699964,2.124641 -12.078602,-0.668008 -14.257011,-6.239435s0.678673,-11.810819 6.378637,-13.940121c5.699964,-2.124641 12.088084,0.668008 14.266516,6.239435c2.173668,5.571405 -0.688178,11.810819 -6.388142,13.940121z" id="svg_12"/>
 </g>
</svg>